<mxfile host="app.diagrams.net" modified="2024-09-20T16:06:47.330Z" agent="Mozilla/5.0 (X11; Linux x86_64) AppleWebKit/537.36 (KHTML, like Gecko) Chrome/128.0.0.0 Safari/537.36" version="24.2.5" etag="sR7ENF1MdUTXBhTitFbD" type="github">
  <diagram name="Page-1" id="L_BGn9PFsEbic9NJsOp4">
    <mxGraphModel>
      <root>
        <mxCell id="0" />
        <mxCell id="1" parent="0" />
      </root>
    </mxGraphModel>
  </diagram>
</mxfile>
